<?xml version="1.0" encoding="utf-8"?>
<!-- Generator: Adobe Illustrator 24.0.1, SVG Export Plug-In . SVG Version: 6.00 Build 0)  -->
<svg version="1.1" xmlns="http://www.w3.org/2000/svg" xmlns:xlink="http://www.w3.org/1999/xlink" x="0px" y="0px"
	 viewBox="0 0 595.28 595.28" style="enable-background:new 0 0 595.28 595.28;" xml:space="preserve">
<style type="text/css">
	.st0{display:none;}
	.st1{display:inline;fill-rule:evenodd;clip-rule:evenodd;fill:#D1D3D4;}
	.st2{fill-rule:evenodd;clip-rule:evenodd;fill:#00244C;}
	.st3{fill:#00244C;}
	.st4{fill-rule:evenodd;clip-rule:evenodd;fill:#FFFFFF;}
	.st5{fill:#FFFFFF;}
</style>
<g id="APOIO" class="st0">
</g>
<g id="LOGO_AZUL">
	<g>
		<path class="st2" d="M145.46,246.32c15.07-15.07,35.12-22.13,54.85-21.17v0.04v8.89v19.31c0.09-0.11,0.18-0.18,0.26-0.23
			c1.2-0.59,2.31-1.45,3.3-2.54c0.99-1.08,1.86-2.38,2.58-3.85c0.72-1.47,1.28-3.11,1.66-4.87c0.35,1.62,0.53,3.33,0.53,5.11
			c0,7.72-3.51,14.29-8.34,16.49v8.93c0.61-1.63,1.2-2.97,1.78-3.26c1.67-0.83,3.23-2.03,4.61-3.55c1.39-1.51,2.61-3.33,3.61-5.39
			c1.01-2.06,1.79-4.35,2.32-6.81c0.48,2.26,0.74,4.66,0.74,7.14c0,11.54-5.61,21.24-13.07,23.61v16.07
			c1.71-4.51,3.37-10.25,4.96-11.04c2.67-1.32,5.15-3.24,7.36-5.66c2.21-2.41,4.16-5.32,5.77-8.6c1.6-3.28,2.86-6.94,3.7-10.87
			c0.77,3.61,1.19,7.43,1.19,11.4c0,19.49-10.03,35.69-22.98,38.22v23.94c2.82-6.25,5.54-17.12,8.13-18.4
			c3.67-1.81,7.07-4.45,10.11-7.77c3.04-3.31,5.72-7.3,7.92-11.81c2.2-4.51,3.93-9.54,5.09-14.93c1.06,4.95,1.63,10.21,1.63,15.66
			c0,27.43-14.47,50.11-32.88,52.71v8c12.69-0.92,25.25-6.06,35.64-15.58c25.27-23.13,28.21-63.32,6.56-89.77
			c-9.41-11.5-21.92-18.51-35.13-20.86v-9.05c14.89,2.19,29.23,9.02,40.69,20.48c28.34,28.34,28.34,74.29,0,102.63
			c-15.07,15.07-35.12,22.13-54.85,21.17v-8.94h0v-8.08c-18.41-2.61-32.87-25.27-32.88-52.7c0-5.45,0.57-10.7,1.63-15.65
			c1.15,5.39,2.88,10.42,5.09,14.93c2.2,4.51,4.88,8.5,7.92,11.81c3.04,3.31,6.45,5.96,10.11,7.77c2.59,1.28,5.31,12.13,8.13,18.38
			v-23.93c-12.94-2.53-22.98-18.72-22.98-38.21c0-3.97,0.42-7.79,1.19-11.4c0.84,3.93,2.1,7.59,3.71,10.87
			c1.6,3.28,3.55,6.19,5.77,8.6c2.21,2.41,4.69,4.34,7.37,5.66c1.59,0.79,3.25,6.52,4.96,11.04V284.2
			c-7.46-2.37-13.08-12.06-13.08-23.61c0-2.49,0.26-4.88,0.74-7.14c0.53,2.46,1.32,4.75,2.32,6.81c1,2.06,2.23,3.88,3.61,5.39
			c1.39,1.51,2.94,2.72,4.62,3.54c0.58,0.29,1.18,1.63,1.79,3.27v-8.94c-4.83-2.2-8.35-8.77-8.35-16.49c0-1.78,0.19-3.49,0.53-5.11
			c0.38,1.76,0.94,3.4,1.66,4.87c0.72,1.47,1.59,2.77,2.58,3.85c0.99,1.08,2.1,1.94,3.3,2.53c0.09,0.04,0.18,0.13,0.27,0.23v-19.24
			c-12.69,0.92-25.25,6.06-35.64,15.58c-25.27,23.13-28.21,63.33-6.56,89.78c9.41,11.5,21.92,18.51,35.13,20.85v9.05
			c-14.89-2.19-29.23-9.01-40.69-20.48C117.12,320.61,117.12,274.66,145.46,246.32z"/>
		<g>
			<g>
				<path class="st3" d="M282.89,267.08h8.95v33.56h-8.95V267.08z"/>
				<path class="st3" d="M332.1,267.84l-0.78,6.97c-1.37-0.77-2.8-1.35-4.3-1.74s-3.03-0.58-4.61-0.58c-3.67,0-6.56,1.02-8.68,3.05
					c-2.12,2.03-3.18,4.8-3.18,8.31c0,3.39,0.95,6.08,2.83,8.08c1.89,2,4.43,3,7.63,3c0.68,0,1.3-0.03,1.87-0.09
					c0.57-0.06,1.1-0.16,1.61-0.28v-7.01h-5.17v-6.33h13.49v18.7c-1.76,0.5-3.6,0.88-5.5,1.13s-3.86,0.38-5.86,0.38
					c-6.54,0-11.5-1.47-14.89-4.42c-3.39-2.94-5.09-7.24-5.09-12.89c0-5.65,1.72-10.05,5.16-13.19s8.27-4.71,14.49-4.71
					c1.86,0,3.71,0.14,5.54,0.41C328.49,266.89,330.31,267.3,332.1,267.84z"/>
				<path class="st3" d="M343.26,267.08h13.35c4.44,0,7.74,0.72,9.88,2.16s3.22,3.63,3.22,6.58c0,2.17-0.57,3.96-1.7,5.36
					c-1.13,1.4-2.77,2.34-4.91,2.81c1.76,0.65,3.18,2.48,4.25,5.5v0.02l4.02,11.12h-9.33l-2.95-9.19c-0.47-1.48-1.12-2.5-1.94-3.07
					c-0.82-0.57-2.09-0.85-3.83-0.85h-1.3v13.11h-8.76V267.08z M352.02,272.98v8.6h3.14c1.94,0,3.39-0.35,4.36-1.05
					s1.45-1.75,1.45-3.15c0-1.51-0.54-2.62-1.62-3.33c-1.08-0.71-2.78-1.06-5.11-1.06H352.02z"/>
				<path class="st3" d="M379.17,267.08h23.31v6.28h-14.36v6.78h13.56v6.38h-13.56v7.65h14.9v6.47h-23.86V267.08z"/>
				<path class="st3" d="M418.75,267.08h8.95v21.09c0,4.53-0.93,7.88-2.8,10.02c-1.87,2.15-4.77,3.22-8.71,3.22
					c-1.02,0-2.03-0.08-3.02-0.22s-1.95-0.37-2.88-0.65v-7.34c0.47,0.19,0.95,0.33,1.43,0.43c0.48,0.09,0.96,0.14,1.43,0.14
					c2.02,0,3.45-0.59,4.31-1.76c0.86-1.17,1.29-3.2,1.29-6.08V267.08z"/>
				<path class="st3" d="M447.01,267.08h10.79l12.71,33.56h-9.57l-2.39-7.11h-12.92l-2.5,7.11h-8.86L447.01,267.08z M452.23,274.56
					l-4.35,12.59h8.55L452.23,274.56z"/>
			</g>
			<g>
				<path class="st3" d="M282.7,304.19h13.75c4.06,0,7.12,0.73,9.17,2.18c2.05,1.46,3.07,3.63,3.07,6.51c0,1.94-0.54,3.55-1.61,4.83
					c-1.07,1.28-2.63,2.21-4.68,2.77c2.3,0.42,4.07,1.33,5.3,2.7s1.85,3.14,1.85,5.28c0,3.15-1.13,5.48-3.38,7
					c-2.25,1.52-5.72,2.28-10.42,2.28H282.7V304.19z M291.47,310.23v7.49h2.72c1.89,0,3.3-0.32,4.24-0.96
					c0.94-0.64,1.41-1.61,1.41-2.92c0-1.18-0.44-2.08-1.32-2.69c-0.88-0.61-2.18-0.92-3.9-0.92H291.47z M291.47,323.67v7.89h3.52
					c1.83,0,3.21-0.34,4.16-1.03c0.95-0.68,1.42-1.68,1.42-2.99c0-1.29-0.43-2.26-1.3-2.9s-2.16-0.97-3.87-0.97H291.47z"/>
				<path class="st3" d="M322.67,304.19h10.79l12.71,33.55h-9.57l-2.39-7.11H321.3l-2.5,7.11h-8.86L322.67,304.19z M327.89,311.67
					l-4.35,12.59h8.55L327.89,311.67z"/>
				<path class="st3" d="M342.96,304.19h25.58v6.71h-8.31v26.85h-8.95V310.9h-8.31V304.19z"/>
				<path class="st3" d="M371.54,304.19h8.95v33.55h-8.95V304.19z"/>
				<path class="st3" d="M408.44,304.57l-0.66,6.92c-1.37-0.58-2.69-1.02-3.95-1.31c-1.26-0.29-2.48-0.44-3.66-0.44
					c-1.81,0-3.22,0.29-4.24,0.86c-1.02,0.57-1.52,1.37-1.52,2.37c0,0.71,0.26,1.33,0.78,1.85s1.3,0.96,2.34,1.31
					c0.35,0.11,0.84,0.27,1.49,0.47c3.84,1.24,6.39,2.34,7.65,3.28c1.18,0.91,2.05,1.96,2.6,3.13c0.55,1.17,0.83,2.55,0.83,4.12
					c0,3.7-1.23,6.52-3.68,8.47c-2.46,1.94-6.02,2.92-10.68,2.92c-1.69,0-3.37-0.12-5.07-0.35c-1.69-0.24-3.37-0.59-5.04-1.06
					l0.76-7.49c1.57,0.71,3.11,1.25,4.59,1.62c1.49,0.37,2.89,0.56,4.22,0.56c1.76,0,3.16-0.33,4.18-0.99
					c1.02-0.66,1.54-1.56,1.54-2.69c0-1.4-1.64-2.67-4.91-3.8c-0.79-0.27-1.39-0.48-1.82-0.64c-3.2-1.15-5.48-2.48-6.85-4
					s-2.05-3.46-2.05-5.82c0-3.37,1.2-5.96,3.61-7.77c2.41-1.81,5.87-2.72,10.37-2.72c1.65,0,3.24,0.1,4.77,0.29
					C405.55,303.85,407.02,304.16,408.44,304.57z"/>
				<path class="st3" d="M411.7,304.19h25.58v6.71h-8.31v26.85h-8.95V310.9h-8.31V304.19z"/>
				<path class="st3" d="M447.22,304.19h10.79l12.71,33.55h-9.57l-2.39-7.11h-12.92l-2.5,7.11h-8.86L447.22,304.19z M452.44,311.67
					l-4.35,12.59h8.55L452.44,311.67z"/>
			</g>
			<g>
				<path class="st3" d="M282.77,237.32h4.92c2.59,0,4.57,0.56,5.94,1.68c1.36,1.12,2.04,2.75,2.04,4.9c0,2.13-0.73,3.8-2.2,4.99
					c-1.47,1.2-3.53,1.8-6.18,1.8h-2.33v10.05h-2.19V237.32z M284.96,239.23v9.49h2.33c1.91,0,3.39-0.42,4.43-1.27
					c1.04-0.85,1.56-2.04,1.56-3.59c0-1.45-0.48-2.58-1.42-3.4c-0.95-0.82-2.27-1.23-3.96-1.23H284.96z"/>
				<path class="st3" d="M305.79,237.32h5.23c2.53,0,4.44,0.5,5.75,1.51c1.3,1.01,1.95,2.49,1.95,4.46c0,1.46-0.46,2.69-1.39,3.68
					c-0.93,0.99-2.24,1.67-3.94,2.02c0.7,0.15,1.28,0.45,1.74,0.9c0.46,0.44,0.93,1.18,1.39,2.22l3.86,8.64h-2.43l-3.49-8.14
					c-0.43-0.97-0.96-1.65-1.57-2.05c-0.62-0.4-1.49-0.6-2.6-0.6h-2.3v10.8h-2.19V237.32z M307.98,239.26v8.72h2.7
					c1.78,0,3.17-0.41,4.17-1.24s1.5-1.97,1.5-3.43c0-1.36-0.46-2.38-1.38-3.05c-0.92-0.67-2.31-1.01-4.17-1.01H307.98z"/>
				<path class="st3" d="M330.3,237.32h2.19v23.42h-2.19V237.32z"/>
				<path class="st3" d="M345,237.32h3.29l7.93,19.27c0.12,0.27,0.23,0.58,0.31,0.92c0.09,0.34,0.17,0.72,0.23,1.15
					c0.03-0.34,0.09-0.67,0.17-0.99s0.18-0.63,0.31-0.94l8.35-19.4h3.21v23.42h-2.04v-19.75c0-0.03-0.01-0.12-0.02-0.26
					c-0.01-0.14-0.02-0.28-0.02-0.41c0-0.22,0.01-0.44,0.04-0.67c0.03-0.23,0.07-0.46,0.13-0.72c-0.27,0.57-0.5,1.12-0.7,1.65
					c-0.02,0.06-0.04,0.09-0.05,0.1l-8.51,20.06h-1.89l-8.38-20.06c-0.06-0.12-0.18-0.51-0.38-1.17c-0.07-0.24-0.12-0.43-0.17-0.58
					c0.03,0.4,0.07,0.82,0.12,1.28s0.08,0.72,0.08,0.78v19.75H345V237.32z"/>
				<path class="st3" d="M381.35,237.32h11.48v1.85h-9.29v8.44h8.78v1.96h-8.78v9.15h9.49v2.03h-11.67V237.32z"/>
				<path class="st3" d="M404.77,237.32h2.19v23.42h-2.19V237.32z"/>
				<path class="st3" d="M419.47,237.32h5.23c2.53,0,4.44,0.5,5.75,1.51c1.3,1.01,1.95,2.49,1.95,4.46c0,1.46-0.46,2.69-1.39,3.68
					c-0.93,0.99-2.24,1.67-3.94,2.02c0.7,0.15,1.28,0.45,1.74,0.9c0.46,0.44,0.93,1.18,1.39,2.22l3.86,8.64h-2.43l-3.49-8.14
					c-0.43-0.97-0.96-1.65-1.57-2.05c-0.62-0.4-1.49-0.6-2.6-0.6h-2.3v10.8h-2.19V237.32z M421.66,239.26v8.72h2.7
					c1.78,0,3.17-0.41,4.17-1.24s1.5-1.97,1.5-3.43c0-1.36-0.46-2.38-1.38-3.05c-0.92-0.67-2.31-1.01-4.17-1.01H421.66z"/>
				<path class="st3" d="M450.81,237.32h2.68l9.32,23.42h-2.37l-2.48-6.38h-12.01l-2.47,6.38h-2.24L450.81,237.32z M452.1,239.26
					l-5.27,13.14h10.35L452.1,239.26z"/>
			</g>
			<g>
				<path class="st3" d="M282.65,344.76h4.36c1.63,0,2.84,0.29,3.66,0.86c0.81,0.57,1.22,1.43,1.22,2.57c0,0.86-0.24,1.56-0.72,2.12
					c-0.48,0.56-1.17,0.93-2.06,1.12c0.38,0.13,0.69,0.31,0.92,0.56s0.5,0.73,0.78,1.45l1.85,4.63h-2.77l-1.5-4.03
					c-0.21-0.58-0.49-0.99-0.82-1.21s-0.84-0.34-1.5-0.34h-0.83v5.59h-2.59V344.76z M285.24,346.62v4.01h1.35
					c0.85,0,1.51-0.17,1.97-0.52c0.46-0.35,0.69-0.85,0.69-1.49c0-0.69-0.23-1.19-0.69-1.51c-0.46-0.32-1.18-0.48-2.17-0.48H285.24z
					"/>
				<path class="st3" d="M297.87,344.76h2.63v13.32h-2.63V344.76z"/>
				<path class="st3" d="M306.99,344.76h4.42c1.53,0,2.69,0.29,3.49,0.88c0.79,0.58,1.19,1.44,1.19,2.57c0,0.72-0.21,1.34-0.65,1.86
					c-0.43,0.51-1.04,0.88-1.83,1.09c0.92,0.19,1.62,0.56,2.11,1.12c0.49,0.56,0.73,1.26,0.73,2.11c0,1.21-0.44,2.13-1.31,2.76
					c-0.87,0.63-2.15,0.95-3.84,0.95h-4.31V344.76z M309.58,346.64v3.67h1.25c0.86,0,1.52-0.16,1.96-0.47s0.67-0.77,0.67-1.36
					c0-0.61-0.21-1.07-0.63-1.38s-1.03-0.47-1.85-0.47H309.58z M309.58,352.17v3.97h1.41c0.91,0,1.61-0.17,2.09-0.52
					c0.48-0.34,0.72-0.84,0.72-1.5c0-0.64-0.22-1.12-0.67-1.46c-0.44-0.33-1.09-0.5-1.95-0.5H309.58z"/>
				<path class="st3" d="M322.32,344.76h8.14v1.91h-5.51v3.53h5.22v1.96h-5.22v3.9h5.71v2.02h-8.33V344.76z"/>
				<path class="st3" d="M336.75,344.76h2.63v13.32h-2.63V344.76z"/>
				<path class="st3" d="M345.87,344.76h4.36c1.62,0,2.84,0.29,3.66,0.86c0.81,0.57,1.22,1.43,1.22,2.57c0,0.86-0.24,1.56-0.72,2.12
					s-1.17,0.93-2.06,1.12c0.38,0.13,0.69,0.31,0.92,0.56s0.5,0.73,0.78,1.45l1.85,4.63h-2.77l-1.5-4.03
					c-0.21-0.58-0.49-0.99-0.83-1.21s-0.84-0.34-1.5-0.34h-0.83v5.59h-2.59V344.76z M348.45,346.62v4.01h1.35
					c0.85,0,1.51-0.17,1.97-0.52c0.46-0.35,0.69-0.85,0.69-1.49c0-0.69-0.23-1.19-0.69-1.51c-0.46-0.32-1.18-0.48-2.17-0.48H348.45z
					"/>
				<path class="st3" d="M364.7,344.76h3.17l5.15,13.32h-2.83l-1.11-3.15h-5.8l-1.15,3.15h-2.61L364.7,344.76z M368.13,340.61h0.96
					c-0.19,0.74-0.43,1.28-0.74,1.61c-0.31,0.34-0.71,0.51-1.2,0.51c-0.13,0-0.25-0.01-0.36-0.02s-0.21-0.04-0.32-0.08l-0.85-0.26
					c-0.1-0.03-0.2-0.06-0.29-0.07c-0.1-0.02-0.18-0.03-0.25-0.03c-0.23,0-0.41,0.06-0.55,0.17c-0.14,0.12-0.26,0.3-0.35,0.54h-0.96
					c0.16-0.69,0.4-1.21,0.72-1.55c0.32-0.34,0.71-0.51,1.2-0.51c0.14,0,0.27,0.01,0.38,0.02s0.22,0.04,0.33,0.07l0.91,0.27
					c0.11,0.04,0.2,0.06,0.27,0.08c0.08,0.01,0.16,0.02,0.24,0.02c0.21,0,0.39-0.06,0.53-0.19S368.05,340.87,368.13,340.61z
					 M366.23,346.98l-2.23,5.99h4.38L366.23,346.98z"/>
				<path class="st3" d="M383.4,344.47c1.96,0,3.5,0.62,4.63,1.86s1.69,2.93,1.69,5.09c0,2.16-0.56,3.86-1.68,5.09
					c-1.12,1.23-2.67,1.85-4.64,1.85c-1.96,0-3.5-0.62-4.62-1.85c-1.12-1.23-1.68-2.93-1.68-5.09c0-2.17,0.56-3.87,1.68-5.1
					C379.9,345.09,381.44,344.47,383.4,344.47z M383.4,346.45c-1.09,0-1.96,0.45-2.63,1.34c-0.67,0.9-1,2.09-1,3.59
					c0,1.5,0.33,2.7,0.99,3.6c0.66,0.9,1.54,1.35,2.63,1.35c1.09,0,1.97-0.45,2.64-1.36c0.67-0.91,1-2.11,1-3.6
					c0-1.49-0.33-2.68-1-3.58C385.37,346.9,384.49,346.45,383.4,346.45z"/>
				<path class="st3" d="M401.31,344.76h3.96c1.72,0,3,0.34,3.83,1.02c0.83,0.68,1.25,1.72,1.25,3.13c0,1.3-0.43,2.31-1.3,3.03
					c-0.87,0.72-2.1,1.08-3.68,1.08h-1.42v5.07h-2.63V344.76z M403.93,346.64v4.5h1.08c0.86,0,1.51-0.19,1.97-0.58
					c0.46-0.38,0.68-0.94,0.68-1.65c0-0.72-0.22-1.28-0.65-1.68c-0.43-0.39-1.05-0.59-1.85-0.59H403.93z"/>
				<path class="st3" d="M415.78,344.76h4.36c1.62,0,2.84,0.29,3.66,0.86c0.81,0.57,1.22,1.43,1.22,2.57c0,0.86-0.24,1.56-0.72,2.12
					s-1.17,0.93-2.06,1.12c0.38,0.13,0.69,0.31,0.92,0.56s0.5,0.73,0.78,1.45l1.85,4.63h-2.77l-1.5-4.03
					c-0.21-0.58-0.49-0.99-0.83-1.21s-0.84-0.34-1.5-0.34h-0.83v5.59h-2.59V344.76z M418.37,346.62v4.01h1.35
					c0.85,0,1.51-0.17,1.97-0.52c0.46-0.35,0.69-0.85,0.69-1.49c0-0.69-0.23-1.19-0.69-1.51c-0.46-0.32-1.18-0.48-2.17-0.48H418.37z
					"/>
				<path class="st3" d="M431,344.76h8.14v1.91h-5.51v3.53h5.22v1.96h-5.22v3.9h5.71v2.02H431V344.76z"/>
				<path class="st3" d="M444.17,344.76h9.69v2.05h-3.55v11.27h-2.63v-11.27h-3.51V344.76z"/>
				<path class="st3" d="M464.76,344.47c1.96,0,3.5,0.62,4.63,1.86s1.69,2.93,1.69,5.09c0,2.16-0.56,3.86-1.68,5.09
					c-1.12,1.23-2.67,1.85-4.64,1.85c-1.96,0-3.5-0.62-4.62-1.85c-1.12-1.23-1.68-2.93-1.68-5.09c0-2.17,0.56-3.87,1.68-5.1
					C461.26,345.09,462.8,344.47,464.76,344.47z M464.76,346.45c-1.09,0-1.96,0.45-2.63,1.34c-0.67,0.9-1,2.09-1,3.59
					c0,1.5,0.33,2.7,0.99,3.6c0.66,0.9,1.54,1.35,2.63,1.35c1.09,0,1.97-0.45,2.64-1.36c0.67-0.91,1-2.11,1-3.6
					c0-1.49-0.33-2.68-1-3.58C466.74,346.9,465.85,346.45,464.76,346.45z"/>
			</g>
		</g>
	</g>
</g>
<g id="LOGO_BRANCO">
</g>
<g id="INFO">
</g>
</svg>
